<svg width="40" height="40" viewBox="0 0 40 40" fill="none" xmlns="http://www.w3.org/2000/svg">
<path d="M39.8333 6.41602V10.5827H33.5833V16.8327H29.4167V10.5827H23.1667V6.41602H29.4167V0.166016H33.5833V6.41602H39.8333ZM33.5833 35.5827H4.41667V6.41602H16.9167V2.24935H4.41667C2.125 2.24935 0.25 4.12435 0.25 6.41602V35.5827C0.25 37.8743 2.125 39.7493 4.41667 39.7493H33.5833C35.875 39.7493 37.75 37.8743 37.75 35.5827V23.0827H33.5833V35.5827ZM25.25 23.0827V31.416H29.4167V23.0827H25.25ZM16.9167 31.416H21.0833V14.7493H16.9167V31.416ZM12.75 31.416V18.916H8.58333V31.416H12.75Z" fill="#B5B5BE"/>
</svg>
